<svg xmlns="http://www.w3.org/2000/svg" viewBox="0 0 285 288">
	<defs>
		<radialGradient id="radial-gradient" cx="-142.66" cy="559.42" r="0.49" gradientTransform="matrix(0, 26, 22.45, 0, -12496.87, 3818.21)" gradientUnits="userSpaceOnUse">
			<stop offset="0%" stop-color="#F09" stop-opacity="0.8"/>
            <stop offset="50%" stop-color="#F09" stop-opacity="0.3"/>
            <stop offset="100%" stop-color="#F09" stop-opacity="0"/>
		</radialGradient>
	</defs>
  <style>
    .light {
      animation: light 1.5s linear infinite alternate;
    }
    @keyframes light {
      0%, 40% { opacity: 0; }
      60%, 100% { opacity: 1; }
    }

    .arm {
        transform: rotate(10deg);
        transform-origin: 122px 150px;
        animation: wave 2s ease-in-out alternate infinite;
    }

    @keyframes wave {
        0% { transform: rotate(-10deg); }
        100% { transform: rotate(-2deg); }
    }
  </style>

  <ellipse opacity="0.2" stroke="#000" fill="#000" cx="118.9" cy="272.14" rx="78.62" ry="15.84" />
  <path fill="#EEE" stroke-width="3" stroke="#000" d="M53.76,58A52.27,52.27,0,1,0,106,110.25,52.26,52.26,0,0,0,53.76,58Zm0,90.13a37.87,37.87,0,1,1,37.87-37.87A37.86,37.86,0,0,1,53.76,148.12Z" />
  <path fill="#fff" stroke-width="3" stroke="#000" d="M80.63,201.78H47.36c-1.27,0-2.3-4-2.3-8.93V108.06c0-4.91,1-8.9,2.29-8.9H80.63c1.26,0,2.29,4,2.29,8.85v84.9C82.92,197.81,81.89,201.78,80.63,201.78Z" />
  <path fill="#fff" stroke-width="3" stroke="#000" d="M50,201.78H37c-5.66,0-9.71-7.05-9.71-19.16v-61c0-13.6,5-22.45,11.63-22.45H50c.8,0,1.45,4,1.45,8.85v84.9C51.49,197.81,50.84,201.78,50,201.78Z" />
  <g class="arm">
  <path fill="#fff" stroke-width="3" stroke="#000" d="M139.06,121.16l33,24.92c2.68,2.06,4.29,6.39,2.78,9.42h0a7.07,7.07,0,0,1-8.71,3.52L125.86,144.7c-3.82-1.36-14.86-10.1-9-20S135.37,118.32,139.06,121.16Z" />
  <path fill="#fff" stroke-width="3" stroke="#000" d="M190.43,165.38c-2.86,6.22-2.7,9.23-6.52,7.19-4.46-2.38-3-1.58-4.57-3.47-1.75-2.15-6.6-5.37-6.6-5.37l-14.38-5.91,9.91-16.21s13.33,9.69,14.07,9.95c.33-.07,1.8-.49,2.14-.53,3.55-.42,6,1.46,6.23,3.82a3.08,3.08,0,0,1-.29,1.68C195.67,159.9,192.42,161.06,190.43,165.38Z" />
  <path stroke-linecap="round" stroke-width="5" fill="none" stroke="#000" d="M176.23,181.82C218.74,107.48,236.79,51.6,236.79,51.6" />
  <path stroke-width="3" stroke="#000" fill="#000" d="M283.88,60.85c-2.92-.21-46.78-7-46.78-7l-13.1,35,47.39,7.27Z" />
  <path fill="#fff" d="M261.44,85.69l.37.12a2.92,2.92,0,0,1,.58.25h-.17c-.35,0-1-.12-.52.06l.12,0c.48.17-.24.06-.37.2l0,0a2.15,2.15,0,0,1,.37.37l.05,0,0,0s-.44.07-.46.1v0c.41.14-.29,0-.37.11v0c.07.27,0,.23,0,.3l.11.09c.12.09.06.3,0,.36l-.05,0a1.44,1.44,0,0,0-.24,0h-.08a.23.23,0,0,1-.21.13h-.08a11.24,11.24,0,0,1-1.39,0,3.25,3.25,0,0,1-.59-.09l-.18,0c-.18,0-8.11-1.36-8.31-1.41q-8.21-1.92-8.4-2a1.27,1.27,0,0,1-.38-.21l-.1-.3a6.35,6.35,0,0,1,.35-1.58l.06-.06c-.08,0-.09-.14-.08-.21v0c.09-.15.31-.57.38-.58H242l.24.06.92.24c.31,0,2.74.61,7.29,1.7L257,84.82c1.49.26,2.34.42,2.54.49l.85.11Zm4.22-20.28a.76.76,0,0,1-.19.12l-.24.12a.19.19,0,0,0,.17,0l.16,0h0c0,.06-.05.12-.06.14h0l.18,0h.1a.49.49,0,0,1-.14.11l-.18.09c.11,0,.21-.06.34-.07H266a1.87,1.87,0,0,1-.47.16l-.86.37-.06,0a.7.7,0,0,0,.29,0l.1,0s0,0,0,.08v0c.4-.06.77-.23,1.16-.31l.29,0-.59.22-.31.13-.16.05-.27.06-.13.05s-.1,0-.11.07v0s.19,0,.53-.06l.35-.1h.06c-.08.14-.22.18-.35.26l-.09.07.94-.09a1.82,1.82,0,0,0,.32,0l.12,0-.2.09-.19.08-.09,0s0,0,0,0v0c0,.07.05.08.09.07l.28-.06s0,0,0,0v0s0,0,0,0h0a.65.65,0,0,0-.19,0l-.18.08-.17.09-.18.09s0,0,0,0h0s0,0,0,0v0a.06.06,0,0,1,0,.06h-.06a7.07,7.07,0,0,0-1.26.47l.17.11.82-.3c.14,0,.17-.06.24,0l.07,0a.25.25,0,0,1-.13,0l-.06,0-.36.22-.19.1-.27.13a3.27,3.27,0,0,0,.72-.16l.4-.13a1.38,1.38,0,0,1-.48.21l-.16.06c-.27.12-.56.18-.83.31a2.16,2.16,0,0,1-.37.14l-.09,0c-.25.14-8.1,3.32-8.17,3.35l-.11,0L258,75l1.08,1.41,1.05,1.43c.55.76,1.14,1.5,1.74,2.23l.61.73c.43.52,1.46,2,1.81,2.44l.1.13c-.07,0-.63-.59-.86-.86l-.09-.12a.32.32,0,0,0,0,.14l0,.06a11.26,11.26,0,0,1-.95-1l-.32-.34,0,.06c.12.23.78.82.84,1v0s0,0-.1-.08l-1-1.09a.29.29,0,0,1-.08-.08,10.84,10.84,0,0,1,1.31,2.22v0s-.18-.08-.41-.34-.38-.4-.5-.55l-.19-.21a.77.77,0,0,0,.07.16l.06.07c-.23,0-1.11-1.33-1.2-1.41l0,0v.06a4.64,4.64,0,0,1-.43-.55.74.74,0,0,0-.22-.26h-.05l.21.32c-.1,0-.17-.08-.24-.18l-.1-.17c-.1-.16-.21-.33-.38-.35h-.09s1.15,1.61,1.3,1.9l0,0s0,0-.07,0l0,0a2.28,2.28,0,0,0,.5.89l.08.13c-.35-.37-.67-.82-1-1.18l-.27-.26c-.15-.13-.18-.31-.32-.31h-.08a2,2,0,0,1-.42-.39l0,0a.39.39,0,0,0,0,.15v.08c-.28-.34-.52-.77-.83-1.1l-.2-.18.21.55v.09c-.37-.46-.74-.93-1.1-1.4l-.71-1c-.2-.25-.48-.58-.62-.57l-3-3.53-.45.23-8.27,4.38a3.32,3.32,0,0,1-.82.39l-.06,0a3.36,3.36,0,0,1-.41-1.14v-.14a2.57,2.57,0,0,0,.1-.7l0-.16a2,2,0,0,1,0-.54l.06-.41a.39.39,0,0,1,.19-.27l.16-.11q.19-.14,7.51-4.1L246.16,65a3,3,0,0,1-.68-1.17V63.7c0-.34,1.94-1.83,2.09-1.82l.4.08a1.56,1.56,0,0,1,.41.44l.18.29c.37.54,3.7,4.87,4.66,6.11l.72.94.3-.14.54-.23c5.18-2.07,7.87-3.14,8.09-3.21l.48-.15,1.19-.37.79-.21A.65.65,0,0,1,265.66,65.41Z" />
  <path fill="#fff" stroke-width="3" stroke="#000" d="M183.45,157.7,178,165.86a4.76,4.76,0,0,0,1.14,6.62h0c2.12,1.42,7.14,1.68,9,.08,1.32-.93,5.29-6.74,5.76-9.1.33-3.78-1.72-5.79-3.84-7.21h0A4.74,4.74,0,0,0,183.45,157.7Z" />
  </g>
  <path fill="#fff" stroke-width="3" stroke="#000" d="M62.1,165.63c2-40.45,34.19-63.48,52.3-56.71,27,10.09,39.42,32,39.42,60.14,0,18.5-14.26,36-14.26,36l-.62,47.67H77.61L78,205.43S60.52,196.79,62.1,165.63Z" />
  <path fill="none" stroke-width="3" stroke="#000" d="M116.81,252.72V210.28s15.58-.78,23.75-6.23" />
  <path fill="#fff" stroke-width="3" stroke="#000" d="M89.4,136.65l-2,31.43c0,27.63,21.26,34.21,34.89,34.71,0,0,13.13.27,22.9-5.66" />
  <path fill="#000" d="M152.71,178.67s-13.13-2.06-24,1.57c-3.53,1.17-9.34,6.45-13.16,9.8l-.92.81c-19.42,13.2-38.87,11.94-38.87,11.94-1.2-1.66-1.07-5.5,1-8.67l24.16-4.42c3.28-1.38,9.71-4.18,12.31-6,3-2.09,9.67-8.65,11.59-10.59,0-.11,1.55-4.11,1.55-13q0-8.9-1.55-14l-19.34-25.71a4.46,4.46,0,0,1,6-3l.17.09,16.75,23.38a50.65,50.65,0,0,0,11.11,1.27,44.24,44.24,0,0,0,10.26-1.28S158.89,159.06,152.71,178.67Z" />
  <path fill="#fff" d="M149.37,168.5l.23,0a1.93,1.93,0,0,1,.38.09h0l-.09,0c-.21,0-.6.07-.3.13h.07c.31,0-.13.07-.19.2v0a1.72,1.72,0,0,1,.26.22l0,0h0s-.26.13-.26.16h0c.25.05-.17.07-.21.14v0c.08.19,0,.18.06.22l.08,0c.08.05.07.22,0,.28l0,0a.74.74,0,0,0-.13.08h0a.15.15,0,0,1-.11.13l0,0a6.33,6.33,0,0,1-.82.21,1.9,1.9,0,0,1-.35,0h-.11c-.11,0-4.94.28-5.06.27-3.38-.09-5.11-.14-5.19-.16a.86.86,0,0,1-.25-.09l-.09-.21a5.89,5.89,0,0,1,0-1.26l0-.06c-.05,0-.07-.09-.07-.14v0a2.81,2.81,0,0,1,.15-.5h.2l.57,0c.19,0,1.68,0,4.49.11l4-.05a14,14,0,0,1,1.56,0l.51-.06Zm-.05-16.09a.62.62,0,0,1-.09.12l-.13.13s.06,0,.1,0l.09-.06h0s0,.1,0,.12h0l.1-.06.06,0a.36.36,0,0,1-.07.1l-.1.1c.07,0,.12-.08.19-.11l.08,0a1,1,0,0,1-.25.19c-.28.25-.43.38-.46.42l0,0a.33.33,0,0,0,.17-.07l.06,0s0,0,0,.05v0c.23-.11.42-.3.64-.43l.17-.08-.32.27-.17.14-.08.07-.15.09-.08.06s0,0,0,.07v0s.12,0,.31-.13l.19-.13h0a.64.64,0,0,1-.18.25l0,.07.54-.23a.45.45,0,0,0,.18-.07l.07,0-.1.1-.11.09,0,0,0,0v0c0,.06,0,.06.06,0l.16-.1h0a0,0,0,0,1,0,0h0a.3.3,0,0,0-.11.06l-.09.09-.1.1-.09.09s0,0,0,0h0s0,0,0,0v0a.08.08,0,0,1,0,.05h0a4,4,0,0,0-.68.57l.11,0,.44-.36c.08-.06.09-.08.14-.06l0,0a.2.2,0,0,1-.07.06l0,0a1.45,1.45,0,0,1-.19.23l-.1.1-.14.14a1.44,1.44,0,0,0,.41-.23l.22-.16a1.1,1.1,0,0,1-.26.23l-.09.08c-.14.13-.31.22-.45.36l-.19.17-.06,0c-.13.15-4.35,3.83-4.38,3.86l-.06,0L146,161l.81.9.79.91c.42.49.86,1,1.31,1.42l.44.46c.32.32,1.11,1.26,1.37,1.55l.08.09s-.44-.35-.62-.52l-.06-.07a.29.29,0,0,0,0,.1l0,0c-.24-.19-.46-.41-.68-.62l-.23-.21,0,.05c.1.15.56.49.61.62v0l-.07,0-.73-.66-.05-.05a8.38,8.38,0,0,1,1.05,1.48v0s-.11,0-.28-.2l-.36-.33-.14-.13a.36.36,0,0,0,.07.1l0,.05c-.14,0-.82-.83-.89-.88h0v0a3,3,0,0,1-.32-.34c-.05-.08-.11-.15-.16-.16h0l.16.2c-.05,0-.11,0-.16-.09l-.08-.11c-.08-.11-.16-.22-.27-.21l-.05,0s.87,1,1,1.23l0,0-.05,0h0a1.76,1.76,0,0,0,.4.59l.07.08c-.26-.22-.5-.51-.75-.73l-.18-.15c-.11-.07-.15-.2-.24-.19l0,0s-.22-.15-.3-.22l0,0a.48.48,0,0,0,0,.12l0,.06c-.2-.21-.4-.5-.63-.7l-.14-.1.2.38v.06c-.27-.29-.55-.58-.82-.88l-.54-.61c-.14-.16-.35-.37-.43-.33L143,160.8l-.24.25-4.3,4.67c-.08.08-.39.44-.44.42h0a2.7,2.7,0,0,1-.38-.8l0-.11a2.74,2.74,0,0,0,0-.55l0-.12a1.83,1.83,0,0,1,0-.4l0-.33a.33.33,0,0,1,.08-.24l.08-.1q.09-.14,3.9-4.32l-3.66-3.9a2.37,2.37,0,0,1-.55-.78l0-.11a6,6,0,0,1,1-1.72h.25a.79.79,0,0,1,.29.26l.14.19c.29.35,2.79,3.11,3.51,3.9l.54.59.16-.15.28-.27q4.18-3.6,4.36-3.74l.27-.19.65-.47.44-.29A.34.34,0,0,1,149.32,152.41Z" />
  <path fill="#02DEBF" stroke="#000" stroke-width="3" d="M101.28,120.13c-2.07-2.75-13.76-9.88-12.76-5.28,10.11,9,23.4,58.66-4.46,75.42a2.36,2.36,0,0,1-2,.2c-4.67-1.71-18.31-11.65-18.31-11.65.54,3.36,1.29,10.13,2.19,14.09,0,0,10.8,9,17.5,8C117.53,195.75,118.44,143,101.28,120.13Z" />
  <path fill="#02DEBF" stroke="#000" stroke-width="3" d="M62.92,178.31l.81.51C63.51,177.43,63.21,177,62.92,178.31Z" />
  <path fill="#02DEBF" stroke="#000" stroke-width="3" d="M78.8,118.89l-5.86.53a5.53,5.53,0,0,1-6-6h0a3,3,0,0,1,4.14-2.54l20.7,8.3c2.21,1.66-10.74.09-12.78-.3Z" />
  <path fill="#fff" stroke-width="3" stroke="#000" d="M169.82,51.21C175.58,83.87,154,115,121.55,120.7S58.18,104.57,52.42,71.91,68.27,8.12,100.69,2.41,164.06,18.54,169.82,51.21Z" />
  <ellipse fill="#000" cx="140.25" cy="57.12" rx="41" ry="49.76" transform="translate(-7.79 25.22) rotate(-10)" />
  <path fill="#fff" stroke-width="3" stroke="#000" d="M112.38,47.47C98.55,33.36,72.81,42.86,72.24,62.9,71.9,75.1,83.47,89,90.12,92c9.77,4.43,27.31-2.68,28.46-10.94C119.59,73.85,120.93,56.19,112.38,47.47Z" />
  <path id="Fill-145" fill="#fff" d="M174.81,65.63c4.06-26.39-17.19-50.4-39.63-50.15a1.47,1.47,0,0,0-.16,2.75c18.72,5.59,33.52,25.61,36.72,46.78C172,66.5,174.49,67.1,174.81,65.63Z" />
  <path id="leg-left" fill="#02DEBF" stroke="#000" stroke-width="3" d="M77.85,211.29s9.52,6.87,18.77,10.43,20.19,6.54,20.19,6.54q0,6.36,0,12.71s-14.24-3.35-21.25-6.42c-9.5-4.17-17.65-8.9-17.65-8.9Z" />
  <path id="leg-right" fill="#02DEBF" stroke="#000" stroke-width="3" d="M138.61,213.74a39.09,39.09,0,0,1-10.42,8.94,62,62,0,0,1-11,5.15l0,13.14s7.69-2.19,12.53-5.37c6.57-4.31,8.84-6,8.84-6Z" />
  <path fill="#fff" stroke-width="3" stroke="#000" d="M117.3,261c0,11.55,4.13,11.55,22.71,11.55,12.55,0,19.07,0,19.07-11,0-8.47-13-14-22.73-14C118.37,247.51,117.3,252.56,117.3,261Z" />
  <line fill="#fff" stroke-width="3" stroke="#000" x1="158.99" y1="264.97" x2="117.3" y2="264.97" />
  <line fill="#fff" stroke-width="3" stroke="#000" x1="128.6" y1="264.97" x2="128.6" y2="272.58" />
  <line fill="#fff" stroke-width="3" stroke="#000" x1="135.5" y1="264.97" x2="135.5" y2="272.58" />
  <line fill="#fff" stroke-width="3" stroke="#000" x1="143.46" y1="264.97" x2="143.46" y2="272.57" />
  <line fill="#fff" stroke-width="3" stroke="#000" x1="150.37" y1="264.97" x2="150.37" y2="272.27" />
  <line fill="#fff" stroke-width="3" stroke="#000" x1="156.37" y1="264.97" x2="156.37" y2="270.27" />
  <line fill="#fff" stroke-width="3" stroke="#000" x1="122.71" y1="264.97" x2="122.71" y2="271.51" />
  <path fill="#fff" stroke-width="3" stroke="#000" d="M66.37,135.45l-2.3,37.67c-.2,3.38,2,7.43,5.29,8.28h0a7.09,7.09,0,0,0,8.37-4.28l15.53-39.8c1.48-3.78,2.1-17.84-9.22-19.85S66.65,130.81,66.37,135.45Z" />
  <path fill="#fff" stroke-width="3" stroke="#000" d="M68.68,207.47c-8.13-.42-8.87-10.35-7.66-16.52.5-2.53,3.12-8.26,3.12-8.26l-.39-19.63,17.8,3.57s-4.26,18.2-4.22,19c.19.27,1.12,1.49,1.29,1.79,1.7,3.13.84,6.07-1.24,7.2a3,3,0,0,1-1.67.35C74.53,201.08,73.43,207.72,68.68,207.47Z" />
  <path fill="#fff" stroke-width="3" stroke="#000" d="M122.87,262.11c0,11.54-4.54,11.54-25,11.54-13.79,0-24,0-24-11,0-8.47,10.17-16.28,24-16.28C117.67,246.34,122.87,253.63,122.87,262.11Z" />
  <line fill="#fff" stroke-width="3" stroke="#000" x1="74.14" y1="266.04" x2="122.87" y2="266.04" />
  <line fill="#fff" stroke-width="3" stroke="#000" x1="110.45" y1="266.04" x2="110.45" y2="273.65" />
  <line fill="#fff" stroke-width="3" stroke="#000" x1="102.86" y1="266.04" x2="102.86" y2="273.65" />
  <line fill="#fff" stroke-width="3" stroke="#000" x1="94.12" y1="266.04" x2="94.12" y2="273.64" />
  <line fill="#fff" stroke-width="3" stroke="#000" x1="86.51" y1="266.04" x2="86.51" y2="273.34" />
  <line fill="#fff" stroke-width="3" stroke="#000" x1="79.9" y1="266.04" x2="79.9" y2="271.97" />
  <line fill="#fff" stroke-width="3" stroke="#000" x1="116.92" y1="266.04" x2="116.92" y2="272.58" />

  <g class="light">
    <ellipse class="light-blur" fill="url(#radial-gradient)" cx="59.52" cy="108.92" rx="10.56" ry="10" />
    <ellipse class="light-fill" fill="#f09" cx="59.52" cy="108.92" rx="3.25" ry="3.25" />
  </g>

</svg>
