<svg xmlns="http://www.w3.org/2000/svg" viewBox="0 0 238 289">
  <defs>
    <radialGradient id="a" cx="50%" cy="50.4%" r="48.6%" fx="50%" fy="50.4%" gradientTransform="matrix(0 1 -1.06295 0 1 0)">
      <stop offset="0%" stop-color="#F09" stop-opacity="0.8"/>
      <stop offset="50%" stop-color="#F09" stop-opacity="0.3"/>
      <stop offset="100%" stop-color="#F09" stop-opacity="0"/>
    </radialGradient>
  </defs>
	<style>
		.light {
			animation: light 1.5s linear infinite alternate;
		}
		@keyframes light {
			0%, 40% { opacity: 0; }
			60%, 100% { opacity: 1; }
		}

        @media (prefers-reduced-motion: reduce) {
            * { animation: none !important; }
        }
	</style>
  <g fill="none" fill-rule="evenodd">
    <path fill="#FFF" d="M172.2 200.4H59.4a7.8 7.8 0 01-7.8-7.8v-74.1c0-4.4 3.5-7.8 7.8-7.8h112.8c4.3 0 7.8 3.4 7.8 7.7v74.2c0 4.3-3.5 7.8-7.8 7.8"/>
    <path fill="#FFF" stroke="#000" stroke-width="3" d="M172.2 200.4H59.4a7.8 7.8 0 01-7.8-7.8v-74.1c0-4.4 3.5-7.8 7.8-7.8h112.8c4.3 0 7.8 3.4 7.8 7.7v74.2c0 4.3-3.5 7.8-7.8 7.8z"/>
    <path fill="#FFF" stroke="#000" stroke-width="3" d="M152.7 129.2l58.4 9.3.5 12.1-55.8 8.7z"/>
    <path fill="#FFF" stroke="#000" stroke-width="3" d="M235.6 143.3c0-8.1-9.8-9.5-16-8.7-2.6.3-8.5 2.5-8.5 2.5l-19.5-1.7 2.3 18s18.5-3 19.3-3l1.7 1.5c3 1.9 6 1.2 7.2-.8.3-.5.5-1 .5-1.6 6.2-.8 12.9-1.4 13-6.2zM83.6 128.7l-57.4-14.3-5.1 11 48 29.8z"/>
    <path fill="#FFF" stroke="#000" stroke-width="3" d="M1.8 109.3c3-7.5 12.7-5 18.1-1.8a58 58 0 016.8 5.6l18.7 6-9.2 15.7s-15.8-10-16.5-10.1c-.4 0-1.8.5-2.2.6-3.5.6-6-1.2-6.4-3.5 0-.6 0-1.2.3-1.7C6 117 0 113.8 1.8 109.3zM192.4 256.6L167.1 206l.4-.4s2.4-3.2 2.4-26.5c0-33-24.3-64-54.1-64-29.9 0-54 31-54 64 0 26.5 2 26.5 2 26.5l.4.4L39 256.6l42.6 24 28.6-53.2a50 50 0 0011.1.1l28.6 53.1 42.6-24z"/>
    <path fill="#FFF" stroke="#000" stroke-width="3" d="M162.5 181.5c0 27.6-28.9 35.2-46.7 35.7-17.3-.5-46.7-8-46.7-35.7 0-34.1 20.9-61.7 46.7-61.7 25.8 0 46.7 27.6 46.7 61.7z"/>
    <path fill="#02DEBF" stroke="#000" stroke-width="3" d="M167.5 205.6s-7.4 12.5-16.3 21.8c-9 9.6-19.9 19.4-19.9 19.4l6.6 11.3s14.7-12.5 21.2-20c8.9-10 14.7-18.4 14.7-18.4l-6.3-14.1"/>
    <path fill="#FFF" stroke="#000" stroke-width="3" d="M149.8 280.6c5.8 10 9.7 7.8 27.4-2.4 12-7 20.7-12 15.2-21.6-4.2-7.3-16.2-7.6-28.9-2.1-11.7 5.2-18 18.8-13.7 26.1z"/>
    <path stroke="#000" stroke-width="3" d="M194 259.7L151.8 284M162.5 277.8l3.8 6.6M169.1 274l3.8 6.6M176.7 269.7l3.8 6.6M183.3 265.9l3.6 6.3M189 262.6l2.9 5.1M156.9 281.1l3.3 5.6"/>
    <path fill="#02DEBF" stroke="#000" stroke-width="3" d="M63.8 205.6S71.2 218 80 227.4c9 9.6 20 19.4 20 19.4L93.3 258s-14.7-12.5-21.2-20c-8.9-10-14.7-18.4-14.7-18.4l6.3-14.1"/>
    <path fill="#FFF" stroke="#000" stroke-width="3" d="M81.5 280.6c-5.8 10-9.7 7.8-27.4-2.4-12-7-20.7-12-15.2-21.6 4.2-7.3 16.2-7.6 28.9-2.1 11.7 5.2 18 18.8 13.7 26.1z"/>
    <path stroke="#000" stroke-width="3" d="M37.3 259.7L79.5 284M68.8 277.8l-3.8 6.6M62.2 274l-3.8 6.6M54.6 269.7l-3.8 6.6M48.1 265.9l-3.7 6.3M42.3 262.6l-2.9 5.1M74.4 281.1l-3.3 5.6"/>
    <path fill="#000" d="M160.2 131.3L136 157a39 39 0 00-2 13.9c0 9 2 13.7 2 14l1.5 1.4A131 131 0 00150 195c4.6 2.5 18.5 6.8 18.5 6.8 2.6 3.2 2.8 7 1.3 8.7h-.4c-2-.2-10.7-1.2-20.9-8l-1.5-1.1c-5.9-4-12.1-7.2-16-9.5 0 0-8-1.8-15-2-4.6-.1-10.3.5-17 2-3.8 2.3-9 5.6-14 9l-1.1.7c-11.8 8.1-21.6 8.4-21.6 8.4-1.6-1.7-1.4-5.5 1.2-8.7l2.6-.8c4.2-1.4 12.6-4.2 16-6 3.8-2.1 12.4-8.7 14.9-10.6 0-.1 2-4.1 2-13 0-6-.7-10.6-2-14l-25-25.7c.4-2.2 4.4-4.3 7.8-3h.2l21.7 23.4a84.3 84.3 0 0028.9 0l21.6-23.4c3.5-1.4 7.6.8 8 3z"/>
    <path fill="#02DEBF" stroke="#000" stroke-width="3" d="M169.8 200.4c-28.7-16.4-18.6-60.7-8.4-69.9-1.2-2-7.4-3.4-9.5-.7-17.2 22.9-16 73.8 17.9 80.8 1.6.4 2.3-8.5 0-10.2z"/>
    <path fill="#FFF" d="M123.6 178.4h.8v.1h-.1c-.3 0-.8.1-.4.2h.1c.4 0-.2 0-.2.2a1.7 1.7 0 01.3.2l-.3.2c.4 0-.2 0-.2.2v.2h.1c.2.1.1.3 0 .3l-.1.1-.2.2a9 9 0 01-1.6.2h-.2l-6.5.3a454 454 0 01-7-.3l-.1-.2v-1.2-.2l.1-.6h1l5.8.2h5.2a23.4 23.4 0 013.5-.1zm0-16.1l-.1.1-.2.1h.2c.1 0 0 0 0 0v.1h.2l-.2.1.3-.1-.2.2-.6.4h.2l.8-.4.3-.1-.5.3-.2.1-.3.2h-.2v.1l.4-.1.3-.2c0 .2 0 .2-.2.3l.7-.2h.2l-.2.1v.1h.2l-.2.2h-.1l-.2.2h.1l-1 .6h.2l.6-.3h.2l-.3.3-.2.1-.1.1c.1 0 .3 0 .5-.2l.3-.2c-.1.2-.2.2-.4.3l-.7.4-.2.2-5.7 3.9h-.1l2.1 1.8 1 1 1 .8 1.8 1.4.5.5 1.8 1.6h.1l-.8-.5v.1l-.9-.6-.3-.2.8.6-1-.6a8 8 0 011.3 1.4l-.4-.2-.4-.3-.2-.1.1.1c-.2 0-1-.8-1.1-.9 0 0-.2 0-.4-.3l-.2-.1.1.2-.2-.1v-.1c-.2-.2-.3-.3-.4-.2h-.1l1.3 1.2c0 .2.3.4.5.6l-1-.7-.2-.1-.3-.2-.4-.2v.1c-.3-.2-.5-.5-.8-.6l-.2-.2.3.4-1-.8-.8-.6c-.2-.2-.4-.4-.5-.3l-3-2.2-.2.2-5.6 4.7-.6.4-.5-.8v-.1-.6h-.1v-.5l-.1-.3v-.2l.2-.2 5-4.3-4.7-3.9-.7-.7v-.2c0-.2 1.2-1.7 1.3-1.7h.3l.4.3.1.2 4.6 3.9.7.6.2-.2.3-.3a522 522 0 015.7-3.7l.3-.2.9-.5.5-.3h.3z"/>
    <path fill="#02DEBF" stroke="#000" stroke-width="3" d="M62.2 199.9C91 183.5 77.6 133 67.4 124c-1-4.6 10.7 2.6 12.8 5.3 17.1 22.8 15.9 73.8-18 80.8-1.6.3-2.2-8.6 0-10.2z"/>
    <path fill="#FFF" stroke="#000" stroke-width="3" d="M57.7 101.7s-12.3 0-17.2-6c-4.9-6.2-9.5-23.5-6.7-36.4 3-14 16.4-15.5 23.9-16.6v59zM174 101.7s12.2 0 17-6c5-6.2 9.6-23.5 6.8-36.4-3-14-16.4-15.5-23.9-16.6v59z"/>
    <path fill="#FFF" stroke="#000" stroke-width="3" d="M181 71.4a65 65 0 11-129.8 0 65 65 0 01129.8 0z"/>
    <path fill="#000" d="M173.5 76.2c0 29.6-25.7 53.6-57.4 53.6s-57.4-24-57.4-53.6S84.4 22.6 116 22.6s57.4 24 57.4 53.6"/>
    <path fill="#FFF" d="M162.4 83.2c.5-2.6.8-5.3.8-8 0-27.6-26.9-47.3-54.8-42.6-1.7.3-1.7 2.7 0 3a65.2 65.2 0 0150.9 47.7c.4 1.6 2.7 1.6 3-.1z"/>
  </g>
  <g class="light" transform="translate(158 110)">
    <circle class="light-blur" cx="13" cy="13" r="13" fill="url(#a)"/>
    <circle class="light-fill" cx="13" cy="13" r="4" fill="#f09"/>
  </g>
</svg>