<svg xmlns="http://www.w3.org/2000/svg" viewBox="0 0 1880 190">
  <g transform="translate(-79 6)" fill="none" fill-rule="evenodd">
    <path fill="#0A5559" stroke="#05383B" stroke-width="4" d="M1020.2 595.2c541.6 0 1016.8-126.7 1016.8-293 0-166.2-468.2-310.1-1034.2-301C436.8 10.4 0 136 0 302.2c0 166.3 478.7 293 1020.2 293z"/>
    <path fill="#000" fill-opacity=".1" d="M1082 87c87.3 0 158 14 158 31.3s-70.7 31.3-158 31.3c0 16-38.1 29.8-95.1 37.4H325.2c1.2 4.2 1.8 8.6 1.8 13 0 38.1-44.3 69-99 69s-99-30.9-99-69 44.3-69 99-69c6.5 0 12.9.4 19 1.3 43.4-15.4 106.6-25.1 177-25.1 31.8 0 62.2 2 90 5.6 28.9-9.6 70.7-15.7 117.3-15.7 50 0 94.7 7 123.6 18l12 .6 2.4-.4 2.4-.5c32.4-5.4 72.6-8.6 116.2-8.6 15.9 0 31.3.4 46 1.2 22.4-11.9 80.3-20.4 148.2-20.4z"/>
    <ellipse cx="889.3" cy="48" fill="#000" fill-opacity=".1" stroke="#093739" stroke-width="4" rx="63.7" ry="18"/>
    <path fill="#000" fill-opacity=".2" d="M889.3 30c34.7 0 63 7.9 63.7 17.6a152 152 0 00-52.1-7.6c-35.2 0-63.8 8-63.8 18v.4c-7.3-3-11.6-6.5-11.6-10.4 0-10 28.6-18 63.8-18zM327.5 134c49.9-26.2 132-27 174-4.9a51.8 51.8 0 0125.5 25 79 79 0 00-8.3-5c-42-22-124.2-21.3-174 4.9-33.6 17.6-44 42.3-34.3 63.3-31.2-23-28-59.6 17.1-83.3z"/>
    <path fill="#000" fill-opacity=".1" stroke="#093739" stroke-width="4" d="M487.7 216.5c50-26.2 56.3-65.3 14.2-87.4-42-22-124.4-21.3-174.3 4.9-50 26.2-48.6 67.8-6.5 89.9 42.1 22 116.7 18.7 166.6-7.4z"/>
    <path fill="#000" fill-opacity=".2" d="M1420 134.8c14.4-36.6 101.6-55.7 173.2-44.4 71.7 11.3 100.6 48.6 86.1 85.2-1.7 4.2-4 8.3-7.1 12 6.1-33.2-23.7-65.1-89-75.4-63.5-10-139.3 3.9-165.7 32.7.3-3.3 1.1-6.7 2.5-10.1z"/>
    <path fill="#000" fill-opacity=".1" stroke="#093739" stroke-width="4" d="M1523.4 221.5c71.7 11.3 141.4-9.3 156-45.9 14.4-36.6-14.5-74-86.2-85.2-71.6-11.3-158.8 7.8-173.2 44.4-14.5 36.6 31.8 75.4 103.4 86.7z"/>
  </g>
</svg>