<svg xmlns="http://www.w3.org/2000/svg" viewBox="0 0 292 290">
  <g fill="none" fill-rule="evenodd">
    <path fill="#0A5559" stroke="#092A2C" stroke-width="1.8" d="M148.4 276.6c70.4 0 132.2-56.6 132.2-130.9 0-74.3-60.9-138.6-134.5-134.5-73.6 4-130.5 60.2-130.5 134.5s62.3 131 132.8 131z"/>
    <path fill="#000" fill-opacity=".1" d="M165.6 42.8c12 0 21.9 6.3 21.9 14.1S177.7 71 165.6 71c0 9-8.1 16.4-19.3 18.8 3.6 3.3 6.3 7.4 8 12a36.3 36.3 0 0124.1 5.5V106c0-8.5 7.6-15.5 17-15.5s17 7 17 15.5c0 5.3-3 10-7.4 12.8 5 3.5 8.3 8.5 8.3 14 0 2.4-.6 4.6-1.7 6.7 8.1 1.8 14.5 6.4 17.2 12.2a15.6 15.6 0 0114.8 9.5c6.5-5.2 13.8-7 19.2-4 8.2 4.8 8.8 19 1.5 31.6-7.4 12.8-20 19.3-28 14.5-3.4-1.9-5.5-5.4-6.3-9.7-2.2 3-5.2 5.3-8.3 6.6a20 20 0 01-9.5 10.8c-7.8 4.5-16.5 4-19.4-1-2.8-4.7.9-12.1 8.2-16.7-2.5-4.8-2.8-11-.3-16.6-12.4-1.2-22-9-22.3-18.4a35.1 35.1 0 01-37.7 1 29.5 29.5 0 01.1 8.7 29.6 29.6 0 01-2.9 36.2c4.5 2 7.7 7.1 7.7 13.2 0 7.7-5.2 14-11.8 14-6.5 0-11.8-6.3-11.8-14 0-1.2.1-2.3.3-3.4-3.2 1-6.7 1.5-10.3 1.5-18.6 0-33.6-14-33.6-31.3 0-1.3 0-2.6.2-3.9-6 5.5-14.3 8.9-23.4 8.9-18.6 0-33.6-14-33.6-31.4 0-10.7 5.8-20.2 14.6-25.9-1.2-3.2-2-6.8-2-10.4 0-9 4-17 10.4-22.7-1.7-4-2.6-8.5-2.6-13.3A33.2 33.2 0 0174.7 52c4.4 0 8.6.9 12.5 2.5a22 22 0 0133.3 1l1.6.3a33.4 33.4 0 0123-3.7c3.2-5.4 11.2-9.2 20.5-9.2z"/>
    <path fill="#000" fill-opacity=".2" d="M54.7 146.5c11.2-4.6 18 2.4 21.7 9a15 15 0 00-18.2-4c-11.8 4.7-8.9 16-5.7 23.1a12.6 12.6 0 01-3.1-4.1l-.2-.4c-3.2-7-6.5-18.7 5.5-23.6z"/>
    <path fill="#000" fill-opacity=".1" stroke="#093739" stroke-width="2" d="M69.2 176.5c7.8-3.6 11.4-12.1 8.2-19-3.3-7-10.4-16-22.7-11-12.2 5-8.6 17-5.3 24 3.2 7 12 9.6 19.8 6z"/>
    <path fill="#000" fill-opacity=".2" d="M132.5 22c8 0 14.6 3.4 15 7.7v.2a20.7 20.7 0 00-12.3-3.4c-8.3 0-15 3.6-15 8.1v.2c-1.7-1.3-2.7-3-2.7-4.7 0-4.5 6.7-8.2 15-8.2z"/>
    <ellipse cx="132.5" cy="30.1" fill="#000" fill-opacity=".1" stroke="#093739" stroke-width="2" rx="15" ry="8.2"/>
    <path fill="#000" fill-opacity=".2" d="M98.2 249.3c12.3 4.5 24.8 1.2 27.8-7.3.7-1.6.9-3.4.7-5.1 2.6 4 3.4 8.4 2 12.4-3.1 8.5-15.5 11.8-27.8 7.3-9.9-3.6-16.6-11-17.3-18.3 3 4.6 8.1 8.7 14.6 11z"/>
    <ellipse cx="106.5" cy="241.2" fill="#000" fill-opacity=".1" stroke="#093739" stroke-width="2" rx="16.4" ry="23.6" transform="rotate(-70 106.5 241.2)"/>
    <path fill="#000" fill-opacity=".2" d="M61.6 71.6c12-11.9 31.5-12.2 41.6-2.2 3.1 3.2 5.2 7.1 6 11.4a22 22 0 00-2-2.3c-10-10-29.6-9.7-41.5 2.2-8 8-10.4 19.3-8.1 28.8a30 30 0 014-37.9z"/>
    <path fill="#000" fill-opacity=".1" stroke="#093739" stroke-width="2" d="M99.8 109.1c11.9-11.9 13.4-29.7 3.4-39.7-10-10-29.7-9.7-41.6 2.2-11.8 12-11.5 30.9-1.5 40.9S88 121 99.8 109z"/>
    <path fill="#000" fill-opacity=".2" d="M193.1 59.6c2.3-9.3 16.4-14.2 28-11.3 11.6 2.9 16.2 12.4 13.9 21.8l-.4 1.2c.3-8-4.5-15.3-14.4-17.7-11-2.7-24 1.4-27.5 9.8 0-1.3.1-2.5.4-3.8z"/>
    <path fill="#000" fill-opacity=".1" stroke="#093739" stroke-width="2" d="M209.8 81.8c11.6 3 22.9-2.3 25.2-11.7 2.3-9.4-2.3-19-13.9-21.8-11.6-3-25.7 2-28 11.3-2.3 9.4 5.1 19.4 16.7 22.2z"/>
    <path fill="#000" fill-opacity=".2" d="M238.4 101.5a23 23 0 0123.2 22.7c0 9-5.4 16.7-13 20.4 3.5-4 5.7-9.2 5.7-15A23 23 0 00231 107c-3.6 0-7.1.8-10.2 2.3a23.3 23.3 0 0117.5-7.7z"/>
    <ellipse cx="238.4" cy="124.2" fill="#000" fill-opacity=".1" stroke="#093739" stroke-width="2" rx="23.2" ry="22.7"/>
    <path fill="#000" fill-opacity=".2" d="M232 218.4a13.2 13.2 0 01-4.7 18l-11.5 6.6a13.2 13.2 0 01-18.4-5.7c3.8 2.2 8.7 2.4 12.9.2l.3-.2 11.4-6.6c6-3.5 8.3-11 5.3-17.2 2 1.2 3.6 2.9 4.8 4.9z"/>
    <path fill="#000" fill-opacity=".1" stroke="#093739" stroke-width="2" d="M208.6 215.2c11.6-6.5 19.8-3.1 23.5 3.2a13.2 13.2 0 01-4.8 18l-11.5 6.6a13.2 13.2 0 01-18-4.8c-3.6-6.3-.8-16.6 10.8-23z"/>
    <path fill="#084C4F" stroke="#092A2C" stroke-width="1.8" d="M201 265.7c-.4 1.3-.9 2.3-1.4 3.2-2.3 3.6-14.1 8.2-21.4 9.6-3.4.6-6.7-.5-9.9-3.4 11.3-1.7 22.1-4.9 32.3-9.3zm-185.4-120c0 9 1 17.8 2.7 26.2-3.4-.2-6.5-6.2-7.2-13.8-.6-7.4 1.4-13.7 4.6-14.7v2.3zM185.5 11.5c4.7-1 20.1 5.3 28.8 10.4 4.3 2.4 7.2 6.4 8.8 12-13-9.3-27.5-16-43.2-19.8 2-1.4 3.8-2.3 5.6-2.6z"/>
  </g>
</svg>